<?xml version="1.0" encoding="UTF-8"?>
<svg width="119px" height="20px" viewBox="0 0 119 20" version="1.1" xmlns="http://www.w3.org/2000/svg" xmlns:xlink="http://www.w3.org/1999/xlink">
    <!-- Generator: Sketch 63.1 (92452) - https://sketch.com -->
    <title>Light Background_3.5</title>
    <desc>Created with Sketch.</desc>
    <defs>
        <polygon id="path-1" points="0.24 0.0872093023 13.8568605 0.0872093023 13.8568605 13.7043189 0.24 13.7043189"></polygon>
        <polygon id="path-3" points="0.120049834 0.0872093023 13.7369103 0.0872093023 13.7369103 13.7043189 0.120049834 13.7043189"></polygon>
        <polygon id="path-5" points="0 0.0872093023 13.6168106 0.0872093023 13.6168106 13.7043189 0 13.7043189"></polygon>
        <polygon id="path-7" points="0.110656146 0.0872093023 13.7277658 0.0872093023 13.7277658 13.7043189 0.110656146 13.7043189"></polygon>
        <polygon id="path-9" points="0.230730897 0.0872093023 13.8478405 0.0872093023 13.8478405 13.7043189 0.230730897 13.7043189"></polygon>
    </defs>
    <g id="Light-Background_3.5" stroke="none" stroke-width="1" fill="none" fill-rule="evenodd">
        <g id="Group-2" transform="translate(8.000000, 3.000000)">
            <g id="Group-20" transform="translate(28.000000, 0.000000)">
                <path d="M61.9100581,7.03873754 C61.9100581,3.6330897 64.6803239,0.86282392 68.0857226,0.86282392 C71.4913704,0.86282392 74.2616362,3.6330897 74.2616362,7.03873754 C74.2616362,10.4443854 71.4913704,13.2146512 68.0857226,13.2146512 C64.6803239,13.2146512 61.9100581,10.4443854 61.9100581,7.03873754" id="Fill-1" fill="#FFFFFF"></path>
                <path d="M46.5908721,7.03873754 C46.5908721,3.6330897 49.3611379,0.86282392 52.7667857,0.86282392 C56.1724336,0.86282392 58.9424502,3.6330897 58.9424502,7.03873754 C58.9424502,10.4443854 56.1724336,13.2146512 52.7667857,13.2146512 C49.3611379,13.2146512 46.5908721,10.4443854 46.5908721,7.03873754" id="Fill-3" fill="#FFFFFF"></path>
                <g id="Group-7" transform="translate(30.398671, 0.162060)">
                    <mask id="mask-2" fill="white">
                        <use xlink:href="#path-1"></use>
                    </mask>
                    <g id="Clip-6"></g>
                    <path d="M0.24,6.8958887 C0.24,3.14140365 3.29406977,0.0870847176 7.04855482,0.0870847176 C10.8030399,0.0870847176 13.8568605,3.14140365 13.8568605,6.8958887 C13.8568605,10.6501246 10.8030399,13.7044435 7.04855482,13.7044435 C3.29406977,13.7044435 0.24,10.6501246 0.24,6.8958887" id="Fill-5" fill="#00AA6C" mask="url(#mask-2)"></path>
                </g>
                <g id="Group-10" transform="translate(15.199336, 0.162060)">
                    <mask id="mask-4" fill="white">
                        <use xlink:href="#path-3"></use>
                    </mask>
                    <g id="Clip-9"></g>
                    <path d="M0.120049834,6.8958887 C0.120049834,3.14140365 3.1741196,0.0870847176 6.92835548,0.0870847176 C10.6830897,0.0870847176 13.7369103,3.14140365 13.7369103,6.8958887 C13.7369103,10.6501246 10.6830897,13.7044435 6.92835548,13.7044435 C3.1741196,13.7044435 0.120049834,10.6501246 0.120049834,6.8958887" id="Fill-8" fill="#00AA6C" mask="url(#mask-4)"></path>
                </g>
                <g id="Group-13" transform="translate(0.000000, 0.162060)">
                    <mask id="mask-6" fill="white">
                        <use xlink:href="#path-5"></use>
                    </mask>
                    <g id="Clip-12"></g>
                    <path d="M-4.9833887e-05,6.8958887 C-4.9833887e-05,3.14140365 3.0542691,0.0870847176 6.80850498,0.0870847176 C10.56299,0.0870847176 13.6168106,3.14140365 13.6168106,6.8958887 C13.6168106,10.6501246 10.56299,13.7044435 6.80850498,13.7044435 C3.0542691,13.7044435 -4.9833887e-05,10.6501246 -4.9833887e-05,6.8958887" id="Fill-11" fill="#00AA6C" mask="url(#mask-6)"></path>
                </g>
                <g id="Group-16" transform="translate(45.847176, 0.162060)">
                    <mask id="mask-8" fill="white">
                        <use xlink:href="#path-7"></use>
                    </mask>
                    <g id="Clip-15"></g>
                    <path d="M12.035407,6.8958887 C12.035407,4.07504153 9.74005814,1.77969269 6.91946013,1.77969269 L6.91946013,11.9926495 C9.74005814,11.9926495 12.035407,9.71623754 12.035407,6.8958887 M0.110656146,6.8958887 C0.110656146,3.14140365 3.16497508,0.0870847176 6.91946013,0.0870847176 C10.673696,0.0870847176 13.7277658,3.14140365 13.7277658,6.8958887 C13.7277658,10.6501246 10.673696,13.7044435 6.91946013,13.7044435 C3.16497508,13.7044435 0.110656146,10.6501246 0.110656146,6.8958887" id="Fill-14" fill="#00AA6C" mask="url(#mask-8)"></path>
                </g>
                <g id="Group-19" transform="translate(61.046512, 0.162060)">
                    <mask id="mask-10" fill="white">
                        <use xlink:href="#path-9"></use>
                    </mask>
                    <g id="Clip-18"></g>
                    <path d="M12.1554817,6.8958887 C12.1554817,4.07504153 9.85988372,1.77969269 7.03953488,1.77969269 C4.21843854,1.77969269 1.9230897,4.07504153 1.9230897,6.8958887 C1.9230897,9.71623754 4.21843854,11.9926495 7.03953488,11.9926495 C9.85988372,11.9926495 12.1554817,9.71623754 12.1554817,6.8958887 M0.230730897,6.8958887 C0.230730897,3.14140365 3.28480066,0.0870847176 7.03953488,0.0870847176 C10.7937708,0.0870847176 13.8478405,3.14140365 13.8478405,6.8958887 C13.8478405,10.6501246 10.7937708,13.7044435 7.03953488,13.7044435 C3.28480066,13.7044435 0.230730897,10.6501246 0.230730897,6.8958887" id="Fill-17" fill="#00AA6C" mask="url(#mask-10)"></path>
                </g>
            </g>
            
        </g>
    </g>
</svg>