<?xml version="1.0" encoding="UTF-8"?>
<svg width="119px" height="20px" viewBox="0 0 119 20" version="1.1" xmlns="http://www.w3.org/2000/svg" xmlns:xlink="http://www.w3.org/1999/xlink">
    <!-- Generator: Sketch 63.1 (92452) - https://sketch.com -->
    <title>Light Background_3</title>
    <desc>Created with Sketch.</desc>
    <defs>
        <polygon id="path-1" points="0.24 0.0874584718 13.8568605 0.0874584718 13.8568605 13.7042193 0.24 13.7042193"></polygon>
        <polygon id="path-3" points="0.120049834 0.0874584718 13.7369103 0.0874584718 13.7369103 13.7042193 0.120049834 13.7042193"></polygon>
        <polygon id="path-5" points="0 0.0874584718 13.6168106 0.0874584718 13.6168106 13.7042193 0 13.7042193"></polygon>
        <polygon id="path-7" points="0.230730897 0.0874584718 13.8478405 0.0874584718 13.8478405 13.7042193 0.230730897 13.7042193"></polygon>
        <polygon id="path-9" points="0.110656146 0.0874584718 13.7277658 0.0874584718 13.7277658 13.7042193 0.110656146 13.7042193"></polygon>
    </defs>
    <g id="Light-Background_3" stroke="none" stroke-width="1" fill="none" fill-rule="evenodd">
        <g id="Group-3" transform="translate(8.000000, 3.000000)">
            <g id="Group-2" transform="translate(28.000000, 0.000000)">
                <g id="Group-20">
                    <path d="M61.9100581,7.04793189 C61.9100581,3.64228405 64.6803239,0.872018272 68.0857226,0.872018272 C71.4913704,0.872018272 74.2616362,3.64228405 74.2616362,7.04793189 C74.2616362,10.4535797 71.4913704,13.2238455 68.0857226,13.2238455 C64.6803239,13.2238455 61.9100581,10.4535797 61.9100581,7.04793189" id="Fill-1" fill="#FFFFFF"></path>
                    <path d="M46.5908721,7.04793189 C46.5908721,3.64228405 49.3611379,0.872018272 52.7667857,0.872018272 C56.1724336,0.872018272 58.9424502,3.64228405 58.9424502,7.04793189 C58.9424502,10.4535797 56.1724336,13.2238455 52.7667857,13.2238455 C49.3611379,13.2238455 46.5908721,10.4535797 46.5908721,7.04793189" id="Fill-3" fill="#FFFFFF"></path>
                    <g id="Group-7" transform="translate(30.398671, 0.161761)">
                        <mask id="mask-2" fill="white">
                            <use xlink:href="#path-1"></use>
                        </mask>
                        <g id="Clip-6"></g>
                        <path d="M0.24,6.89591362 C0.24,3.14167774 3.29406977,0.087358804 7.04855482,0.087358804 C10.8030399,0.087358804 13.8568605,3.14167774 13.8568605,6.89591362 C13.8568605,10.6503987 10.8030399,13.7042193 7.04855482,13.7042193 C3.29406977,13.7042193 0.24,10.6503987 0.24,6.89591362" id="Fill-5" fill="#00AA6C" mask="url(#mask-2)"></path>
                    </g>
                    <g id="Group-10" transform="translate(15.199336, 0.161761)">
                        <mask id="mask-4" fill="white">
                            <use xlink:href="#path-3"></use>
                        </mask>
                        <g id="Clip-9"></g>
                        <path d="M0.120049834,6.89591362 C0.120049834,3.14167774 3.1741196,0.087358804 6.92835548,0.087358804 C10.6830897,0.087358804 13.7369103,3.14167774 13.7369103,6.89591362 C13.7369103,10.6503987 10.6830897,13.7042193 6.92835548,13.7042193 C3.1741196,13.7042193 0.120049834,10.6503987 0.120049834,6.89591362" id="Fill-8" fill="#00AA6C" mask="url(#mask-4)"></path>
                    </g>
                    <g id="Group-13" transform="translate(0.000000, 0.161761)">
                        <mask id="mask-6" fill="white">
                            <use xlink:href="#path-5"></use>
                        </mask>
                        <g id="Clip-12"></g>
                        <path d="M-4.9833887e-05,6.89591362 C-4.9833887e-05,3.14167774 3.0542691,0.087358804 6.80850498,0.087358804 C10.56299,0.087358804 13.6168106,3.14167774 13.6168106,6.89591362 C13.6168106,10.6503987 10.56299,13.7042193 6.80850498,13.7042193 C3.0542691,13.7042193 -4.9833887e-05,10.6503987 -4.9833887e-05,6.89591362" id="Fill-11" fill="#00AA6C" mask="url(#mask-6)"></path>
                    </g>
                    <g id="Group-16" transform="translate(61.046512, 0.161761)">
                        <mask id="mask-8" fill="white">
                            <use xlink:href="#path-7"></use>
                        </mask>
                        <g id="Clip-15"></g>
                        <path d="M12.1554817,6.89591362 C12.1554817,4.07531561 9.85988372,1.77996678 7.03953488,1.77996678 C4.21843854,1.77996678 1.9230897,4.07531561 1.9230897,6.89591362 C1.9230897,9.7167608 4.21843854,11.9926744 7.03953488,11.9926744 C9.85988372,11.9926744 12.1554817,9.7167608 12.1554817,6.89591362 M0.230730897,6.89591362 C0.230730897,3.14167774 3.28480066,0.087358804 7.03953488,0.087358804 C10.7937708,0.087358804 13.8478405,3.14167774 13.8478405,6.89591362 C13.8478405,10.6503987 10.7937708,13.7042193 7.03953488,13.7042193 C3.28480066,13.7042193 0.230730897,10.6503987 0.230730897,6.89591362" id="Fill-14" fill="#00AA6C" mask="url(#mask-8)"></path>
                    </g>
                    <g id="Group-19" transform="translate(45.847176, 0.161761)">
                        <mask id="mask-10" fill="white">
                            <use xlink:href="#path-9"></use>
                        </mask>
                        <g id="Clip-18"></g>
                        <path d="M12.035407,6.89591362 C12.035407,4.07531561 9.74005814,1.77996678 6.91946013,1.77996678 C4.09861296,1.77996678 1.80326412,4.07531561 1.80326412,6.89591362 C1.80326412,9.7167608 4.09861296,11.9926744 6.91946013,11.9926744 C9.74005814,11.9926744 12.035407,9.7167608 12.035407,6.89591362 M0.110656146,6.89591362 C0.110656146,3.14167774 3.16497508,0.087358804 6.91946013,0.087358804 C10.673696,0.087358804 13.7277658,3.14167774 13.7277658,6.89591362 C13.7277658,10.6503987 10.673696,13.7042193 6.91946013,13.7042193 C3.16497508,13.7042193 0.110656146,10.6503987 0.110656146,6.89591362" id="Fill-17" fill="#00AA6C" mask="url(#mask-10)"></path>
                    </g>
                </g>
            </g>
            
        </g>
    </g>
</svg>