<?xml version="1.0" encoding="UTF-8"?>
<svg width="119px" height="20px" viewBox="0 0 119 20" version="1.1" xmlns="http://www.w3.org/2000/svg" xmlns:xlink="http://www.w3.org/1999/xlink">
    <!-- Generator: Sketch 63.1 (92452) - https://sketch.com -->
    <title>Light Background_5</title>
    <desc>Created with Sketch.</desc>
    <defs>
        <polygon id="path-1" points="0.24 0.0874584718 13.8568605 0.0874584718 13.8568605 13.7043189 0.24 13.7043189"></polygon>
        <polygon id="path-3" points="0.110805648 0.0874584718 13.7276661 0.0874584718 13.7276661 13.7043189 0.110805648 13.7043189"></polygon>
        <polygon id="path-5" points="0.230880399 0.0874584718 13.8477409 0.0874584718 13.8477409 13.7043189 0.230880399 13.7043189"></polygon>
        <polygon id="path-7" points="0.120049834 0.0874584718 13.7369103 0.0874584718 13.7369103 13.7043189 0.120049834 13.7043189"></polygon>
        <polygon id="path-9" points="0 0.0874584718 13.6168106 0.0874584718 13.6168106 13.7043189 0 13.7043189"></polygon>
    </defs>
    <g id="Light-Background_5" stroke="none" stroke-width="1" fill="none" fill-rule="evenodd">
        <g id="Group-2" transform="translate(8.000000, 3.000000)">
            <g id="Group-16" transform="translate(28.000000, 0.000000)">
                <g id="Group-3" transform="translate(30.398671, 0.161786)">
                    <mask id="mask-2" fill="white">
                        <use xlink:href="#path-1"></use>
                    </mask>
                    <g id="Clip-2"></g>
                    <path d="M0.24,6.89583887 C0.24,3.14135382 3.29406977,0.0872840532 7.04855482,0.0872840532 C10.8030399,0.0872840532 13.8568605,3.14135382 13.8568605,6.89583887 C13.8568605,10.6503239 10.8030399,13.7043937 7.04855482,13.7043937 C3.29406977,13.7043937 0.24,10.6503239 0.24,6.89583887" id="Fill-1" fill="#00AA6C" mask="url(#mask-2)"></path>
                </g>
                <g id="Group-6" transform="translate(45.847176, 0.161786)">
                    <mask id="mask-4" fill="white">
                        <use xlink:href="#path-3"></use>
                    </mask>
                    <g id="Clip-5"></g>
                    <path d="M0.110805648,6.89583887 C0.110805648,3.14135382 3.16512458,0.0872840532 6.91936047,0.0872840532 C10.6738455,0.0872840532 13.7276661,3.14135382 13.7276661,6.89583887 C13.7276661,10.6503239 10.6738455,13.7043937 6.91936047,13.7043937 C3.16512458,13.7043937 0.110805648,10.6503239 0.110805648,6.89583887" id="Fill-4" fill="#00AA6C" mask="url(#mask-4)"></path>
                </g>
                <g id="Group-9" transform="translate(61.046512, 0.161786)">
                    <mask id="mask-6" fill="white">
                        <use xlink:href="#path-5"></use>
                    </mask>
                    <g id="Clip-8"></g>
                    <path d="M0.230880399,6.89583887 C0.230880399,3.14135382 3.28495017,0.0872840532 7.03918605,0.0872840532 C10.7939203,0.0872840532 13.8477409,3.14135382 13.8477409,6.89583887 C13.8477409,10.6503239 10.7939203,13.7043937 7.03918605,13.7043937 C3.28495017,13.7043937 0.230880399,10.6503239 0.230880399,6.89583887" id="Fill-7" fill="#00AA6C" mask="url(#mask-6)"></path>
                </g>
                <g id="Group-12" transform="translate(15.199336, 0.161786)">
                    <mask id="mask-8" fill="white">
                        <use xlink:href="#path-7"></use>
                    </mask>
                    <g id="Clip-11"></g>
                    <path d="M0.120049834,6.89583887 C0.120049834,3.14135382 3.1741196,0.0872840532 6.92835548,0.0872840532 C10.6830897,0.0872840532 13.7369103,3.14135382 13.7369103,6.89583887 C13.7369103,10.6503239 10.6830897,13.7043937 6.92835548,13.7043937 C3.1741196,13.7043937 0.120049834,10.6503239 0.120049834,6.89583887" id="Fill-10" fill="#00AA6C" mask="url(#mask-8)"></path>
                </g>
                <g id="Group-15" transform="translate(0.000000, 0.161786)">
                    <mask id="mask-10" fill="white">
                        <use xlink:href="#path-9"></use>
                    </mask>
                    <g id="Clip-14"></g>
                    <path d="M-4.9833887e-05,6.89583887 C-4.9833887e-05,3.14135382 3.0542691,0.0872840532 6.80850498,0.0872840532 C10.56299,0.0872840532 13.6168106,3.14135382 13.6168106,6.89583887 C13.6168106,10.6503239 10.56299,13.7043937 6.80850498,13.7043937 C3.0542691,13.7043937 -4.9833887e-05,10.6503239 -4.9833887e-05,6.89583887" id="Fill-13" fill="#00AA6C" mask="url(#mask-10)"></path>
                </g>
            </g>
            
        </g>
    </g>
</svg>