<?xml version="1.0" encoding="UTF-8"?>
<svg width="119px" height="20px" viewBox="0 0 119 20" version="1.1" xmlns="http://www.w3.org/2000/svg" xmlns:xlink="http://www.w3.org/1999/xlink">
    <!-- Generator: Sketch 63.1 (92452) - https://sketch.com -->
    <title>Light Background_4.5</title>
    <desc>Created with Sketch.</desc>
    <defs>
        <polygon id="path-1" points="0.24 0.0874584718 13.8568605 0.0874584718 13.8568605 13.7043189 0.24 13.7043189"></polygon>
        <polygon id="path-3" points="0.110805648 0.0874584718 13.7276661 0.0874584718 13.7276661 13.7043189 0.110805648 13.7043189"></polygon>
        <polygon id="path-5" points="0.120049834 0.0874584718 13.7369103 0.0874584718 13.7369103 13.7043189 0.120049834 13.7043189"></polygon>
        <polygon id="path-7" points="0 0.0874584718 13.6168106 0.0874584718 13.6168106 13.7043189 0 13.7043189"></polygon>
        <polygon id="path-9" points="0.230730897 0.0874584718 13.8478405 0.0874584718 13.8478405 13.7043189 0.230730897 13.7043189"></polygon>
    </defs>
    <g id="Light-Background_4.5" stroke="none" stroke-width="1" fill="none" fill-rule="evenodd">
        <g id="Group-2" transform="translate(8.000000, 3.000000)">
            <g id="Group-18" transform="translate(28.000000, 0.000000)">
                <path d="M61.9100581,7.04798173 C61.9100581,3.64233389 64.6803239,0.872068106 68.0857226,0.872068106 C71.4913704,0.872068106 74.2616362,3.64233389 74.2616362,7.04798173 C74.2616362,10.4536296 71.4913704,13.2238953 68.0857226,13.2238953 C64.6803239,13.2238953 61.9100581,10.4536296 61.9100581,7.04798173" id="Fill-1" fill="#FFFFFF"></path>
                <g id="Group-5" transform="translate(30.398671, 0.161761)">
                    <mask id="mask-2" fill="white">
                        <use xlink:href="#path-1"></use>
                    </mask>
                    <g id="Clip-4"></g>
                    <path d="M0.24,6.89581395 C0.24,3.1413289 3.29406977,0.0872591362 7.04855482,0.0872591362 C10.8030399,0.0872591362 13.8568605,3.1413289 13.8568605,6.89581395 C13.8568605,10.650299 10.8030399,13.7043688 7.04855482,13.7043688 C3.29406977,13.7043688 0.24,10.650299 0.24,6.89581395" id="Fill-3" fill="#00AA6C" mask="url(#mask-2)"></path>
                </g>
                <g id="Group-8" transform="translate(45.847176, 0.161761)">
                    <mask id="mask-4" fill="white">
                        <use xlink:href="#path-3"></use>
                    </mask>
                    <g id="Clip-7"></g>
                    <path d="M0.110805648,6.89581395 C0.110805648,3.1413289 3.16512458,0.0872591362 6.91936047,0.0872591362 C10.6738455,0.0872591362 13.7276661,3.1413289 13.7276661,6.89581395 C13.7276661,10.650299 10.6738455,13.7043688 6.91936047,13.7043688 C3.16512458,13.7043688 0.110805648,10.650299 0.110805648,6.89581395" id="Fill-6" fill="#00AA6C" mask="url(#mask-4)"></path>
                </g>
                <g id="Group-11" transform="translate(15.199336, 0.161761)">
                    <mask id="mask-6" fill="white">
                        <use xlink:href="#path-5"></use>
                    </mask>
                    <g id="Clip-10"></g>
                    <path d="M0.120049834,6.89581395 C0.120049834,3.1413289 3.1741196,0.0872591362 6.92835548,0.0872591362 C10.6830897,0.0872591362 13.7369103,3.1413289 13.7369103,6.89581395 C13.7369103,10.650299 10.6830897,13.7043688 6.92835548,13.7043688 C3.1741196,13.7043688 0.120049834,10.650299 0.120049834,6.89581395" id="Fill-9" fill="#00AA6C" mask="url(#mask-6)"></path>
                </g>
                <g id="Group-14" transform="translate(0.000000, 0.161761)">
                    <mask id="mask-8" fill="white">
                        <use xlink:href="#path-7"></use>
                    </mask>
                    <g id="Clip-13"></g>
                    <path d="M-4.9833887e-05,6.89581395 C-4.9833887e-05,3.1413289 3.0542691,0.0872591362 6.80850498,0.0872591362 C10.56299,0.0872591362 13.6168106,3.1413289 13.6168106,6.89581395 C13.6168106,10.650299 10.56299,13.7043688 6.80850498,13.7043688 C3.0542691,13.7043688 -4.9833887e-05,10.650299 -4.9833887e-05,6.89581395" id="Fill-12" fill="#00AA6C" mask="url(#mask-8)"></path>
                </g>
                <g id="Group-17" transform="translate(61.046512, 0.161761)">
                    <mask id="mask-10" fill="white">
                        <use xlink:href="#path-9"></use>
                    </mask>
                    <g id="Clip-16"></g>
                    <path d="M12.1554817,6.89581395 C12.1554817,4.07546512 9.85988372,1.77986711 7.03953488,1.77986711 L7.03953488,11.9925748 C9.85988372,11.9925748 12.1554817,9.71641196 12.1554817,6.89581395 M0.230730897,6.89581395 C0.230730897,3.1413289 3.28480066,0.0872591362 7.03953488,0.0872591362 C10.7937708,0.0872591362 13.8478405,3.1413289 13.8478405,6.89581395 C13.8478405,10.650299 10.7937708,13.7043688 7.03953488,13.7043688 C3.28480066,13.7043688 0.230730897,10.650299 0.230730897,6.89581395" id="Fill-15" fill="#00AA6C" mask="url(#mask-10)"></path>
                </g>
            </g>
            
        </g>
    </g>
</svg>